<svg id="Layer_1" data-name="Layer 1" xmlns="http://www.w3.org/2000/svg" viewBox="0 0 712.2 143.6"><defs><style>.cls-1{fill:#fff;}.cls-2{fill:#ffd80d;}</style></defs><path class="cls-1" d="M166.6,442.32V559.71h71a3,3,0,0,1,3,3v11.6a3,3,0,0,1-3,3H150.8a3,3,0,0,1-3-3v-132a3,3,0,0,1,3-3h12.8A3,3,0,0,1,166.6,442.32Z" transform="translate(-147.8 -436.52)"/><path class="cls-1" d="M532,441.12a3.1,3.1,0,0,1,3-1.8h19.2a3,3,0,0,1,3,3v132a3,3,0,0,1-3,3H541.4a3,3,0,0,1-3-3V468.92l-47.7,73.6a3,3,0,0,1-2.53,1.37c-2.7,0-7.73,0-10.33,0a3,3,0,0,1-2.53-1.37L427.6,468.92V574.31a3,3,0,0,1-3,3H411.8a3,3,0,0,1-3-3v-132a3,3,0,0,1,3-3H431a3.1,3.1,0,0,1,3,1.8l49,78.2Z" transform="translate(-147.8 -436.52)"/><path class="cls-1" d="M716.4,507.71c0-39.19,32-71.19,71.8-71.19s71.8,32,71.8,71.19c0,41.4-32,72.4-71.8,72.4S716.4,549.11,716.4,507.71Zm124,0c0-29.59-22-52.79-52.2-52.79S736,478.12,736,507.71c0,31.6,22,54,52.2,54S840.4,539.31,840.4,507.71Z" transform="translate(-147.8 -436.52)"/><path class="cls-1" d="M351.6,512.51c0,33.6-16.4,49.2-39.2,49.2s-39-15.6-39-49.2V481.19a3,3,0,0,0-3-3H257.6a3,3,0,0,0-3,3v32.92c0,42.2,25.2,66,57.8,66s57.8-23.8,57.8-66V481.19a3,3,0,0,0-3-3H354.6a3,3,0,0,0-3,3Z" transform="translate(-147.8 -436.52)"/><rect class="cls-2" x="106.8" y="2.8" width="115.6" height="17.94" rx="3"/><path class="cls-1" d="M692,559.71H618.77v-42.2h0v-17h0V456.92H692a3,3,0,0,0,3-3v-11.6a3,3,0,0,0-3-3H603a3,3,0,0,0-3,3v132a3,3,0,0,0,3,3H692a3,3,0,0,0,3-3v-11.6A3,3,0,0,0,692,559.71Z" transform="translate(-147.8 -436.52)"/><rect class="cls-2" x="493.03" y="62.83" width="151.13" height="17.94" rx="3.43"/></svg>