<svg id="bf2b12fd-98ef-4df9-abe4-52340225686d" xmlns="http://www.w3.org/2000/svg" xmlns:xlink="http://www.w3.org/1999/xlink" viewBox="0 0 1143 663.72"><defs><style>.cls-1,.cls-4{opacity:0.1;}.cls-2{fill:#3f3d56;}.cls-3{fill:#5efbcc;}.cls-4,.cls-5,.cls-7{isolation:isolate;}.cls-5{fill:#cecece;}.cls-5,.cls-7{opacity:0.15;}.cls-6{fill:#fff;}.cls-7{fill:#f2f2f2;}.cls-8{fill:#f0f0f0;}.cls-9{fill:none;stroke:#3f3d56;stroke-miterlimit:10;stroke-width:4px;}.cls-10{fill:url(#linear-gradient);}.cls-11{fill:#2f2e41;}.cls-12{fill:#fbbebe;}.cls-13{fill:#e8e8f0;}.cls-14{fill:#f86d70;}</style><linearGradient id="linear-gradient" x1="595.98" y1="-91.78" x2="595.98" y2="67.86" gradientTransform="matrix(1, 0, 0, -1, -28.5, 547.86)" gradientUnits="userSpaceOnUse"><stop offset="0" stop-color="gray" stop-opacity="0.25"/><stop offset="0.54" stop-color="gray" stop-opacity="0.12"/><stop offset="1" stop-color="gray" stop-opacity="0.1"/></linearGradient></defs><g class="cls-1"><ellipse class="cls-2" cx="840.37" cy="625" rx="22.09" ry="28.91"/><path class="cls-2" d="M857.85,501.35a34.87,34.87,0,0,0,4.65-17.67c0-16-9.89-28.91-22.09-28.91s-22.08,12.94-22.08,28.91a34.86,34.86,0,0,0,4.61,17.67,36.13,36.13,0,0,0,0,35.33,36.15,36.15,0,0,0,0,35.34,34.86,34.86,0,0,0-4.61,17.67c0,16,9.89,28.91,22.08,28.91s22.09-12.94,22.09-28.91A34.86,34.86,0,0,0,857.89,572a36.15,36.15,0,0,0,0-35.34,36.13,36.13,0,0,0,0-35.33Z" transform="translate(0 -0.03)"/><ellipse class="cls-2" cx="840.37" cy="448.32" rx="22.09" ry="28.91"/><ellipse class="cls-2" cx="840.37" cy="412.98" rx="22.09" ry="28.91"/><path class="cls-3" d="M923.05,171.19a106.94,106.94,0,0,0,8.22-12.11l-58-9.53L936,150a106,106,0,0,0,2-83.82l-84.22,43.66L931.5,52.8A105.8,105.8,0,1,0,756.75,171.19a106.4,106.4,0,0,0-12.06,19.29L820,229.62l-80.32-27a105.8,105.8,0,0,0,17,99.34A105.79,105.79,0,1,0,923,302a105.79,105.79,0,0,0,0-130.81Z" transform="translate(0 -0.03)"/><path class="cls-4" d="M734.11,236.6A105.29,105.29,0,0,0,756.75,302a105.79,105.79,0,1,0,166.3,0C937.23,284,734.11,224.72,734.11,236.6Z" transform="translate(0 -0.03)"/></g><g class="cls-1"><ellipse class="cls-2" cx="220.81" cy="605.39" rx="13.44" ry="17.6"/><path class="cls-2" d="M231.5,530.13a21.15,21.15,0,0,0,2.81-10.76c0-9.72-6-17.6-13.45-17.6s-13.44,7.88-13.44,17.6a21.24,21.24,0,0,0,2.8,10.76,22.07,22.07,0,0,0,0,21.51,22.07,22.07,0,0,0,0,21.51,21.2,21.2,0,0,0-2.8,10.75c0,9.73,6,17.61,13.44,17.61s13.45-7.88,13.45-17.61a21.11,21.11,0,0,0-2.81-10.75,22,22,0,0,0,0-21.51,22,22,0,0,0,0-21.51Z" transform="translate(0 -0.03)"/><ellipse class="cls-2" cx="220.81" cy="497.83" rx="13.44" ry="17.6"/><ellipse class="cls-2" cx="220.81" cy="476.32" rx="13.44" ry="17.6"/><path class="cls-3" d="M170.5,329.13a63.21,63.21,0,0,1-5-7.37l35.33-5.8-38.21.29a64.57,64.57,0,0,1-1.23-51l51.23,26.61-47.27-34.8a64.4,64.4,0,1,1,106.37,72.07,64.44,64.44,0,0,1,7.34,11.73L233.2,364.7l48.9-16.41a64.44,64.44,0,0,1-10.38,60.48,64.4,64.4,0,1,1-101.24,0,64.43,64.43,0,0,1,0-79.64Z" transform="translate(0 -0.03)"/><path class="cls-4" d="M285.5,369a64.12,64.12,0,0,1-13.78,39.82,64.4,64.4,0,1,1-101.24,0C161.85,397.86,285.5,361.72,285.5,369Z" transform="translate(0 -0.03)"/></g><g class="cls-1"><ellipse class="cls-2" cx="523.81" cy="614.76" rx="17.99" ry="23.55"/><path class="cls-2" d="M538.05,514a28.39,28.39,0,0,0,3.75-14.4c0-13-8-23.55-18-23.55s-18,10.55-18,23.55a28.4,28.4,0,0,0,3.76,14.4,29.45,29.45,0,0,0,0,28.79,29.43,29.43,0,0,0,0,28.78A28.4,28.4,0,0,0,505.8,586c0,13,8.06,23.55,18,23.55s18-10.55,18-23.55a28.39,28.39,0,0,0-3.75-14.4,29.48,29.48,0,0,0,0-28.78A29.5,29.5,0,0,0,538.05,514Z" transform="translate(0 -0.03)"/><ellipse class="cls-2" cx="523.81" cy="470.82" rx="17.99" ry="23.55"/><ellipse class="cls-2" cx="523.81" cy="442.03" rx="17.99" ry="23.55"/><path class="cls-3" d="M456.5,245.06a85.5,85.5,0,0,1-6.7-9.86l47.27-7.76-51.12.38a86.36,86.36,0,0,1-1.65-68.29l68.6,35.58-63.27-46.5a86.19,86.19,0,1,1,142.31,96.45,86.06,86.06,0,0,1,9.82,15.72L540.4,292.66l65.43-22a86.22,86.22,0,0,1-13.89,80.93,86.18,86.18,0,1,1-135.48,0,86.2,86.2,0,0,1,0-106.57Z" transform="translate(0 -0.03)"/><path class="cls-4" d="M610.38,298.35a85.83,85.83,0,0,1-18.44,53.28,86.18,86.18,0,1,1-135.48,0C444.91,337,610.38,288.67,610.38,298.35Z" transform="translate(0 -0.03)"/></g><path class="cls-2" d="M1143,636.22c0,6.87-50.22,13.15-133.25,18-15.1.87-31.28,1.7-48.44,2.48q-22.24,1-46.62,1.89-23.62.84-49.05,1.56c-53.54,1.53-112.73,2.63-175.61,3.18q-22.89.21-46.39.32-24.48.11-49.52.1c-303.14,0-548.87-12.31-548.87-27.5s245.73-27.5,548.87-27.5c130.51,0,250.36,2.29,344.56,6.09l10.3.42H949C1067.7,620.29,1143,627.86,1143,636.22Z" transform="translate(0 -0.03)"/><path class="cls-5" d="M1143,636.22c0,6.87-50.22,13.15-133.25,18-15.1.87-31.28,1.7-48.44,2.48q-22.24,1-46.62,1.89-23.62.84-49.05,1.56c-53.54,1.53-112.73,2.63-175.61,3.18q-22.89.21-46.39.32-24.48.11-49.52.1c-303.14,0-548.87-12.31-548.87-27.5s245.73-27.5,548.87-27.5c130.51,0,250.36,2.29,344.56,6.09l10.3.42H949C1067.7,620.29,1143,627.86,1143,636.22Z" transform="translate(0 -0.03)"/><path class="cls-6" d="M1097.75,631.38c0,5.74-50.22,11-133.25,15-15.09.73-31.28,1.42-48.43,2.07q-22.25.84-46.62,1.58-23.62.71-49.05,1.31c-53.55,1.28-112.74,2.2-175.62,2.66q-22.87.16-46.39.26-24.48.09-49.51.09C245.74,654.35,0,644.06,0,631.35s245.74-23,548.88-23c130.5,0,250.35,1.91,344.55,5.09l10.3.35h.07C1022.5,618.06,1097.75,624.35,1097.75,631.38Z" transform="translate(0 -0.03)"/><path class="cls-2" d="M683.11,357.62q-51.18,0-80.67-40.63T573,218.55q0-58.2,28.52-98.24t80.46-40q55.08,0,83,42.19t27.93,97.66q0,55.07-28.9,96.28T683.11,357.62Zm1-30.47q33.67,0,50.33-29.35t16.66-74q0-49.7-17.05-81.39t-52.3-31.7q-67,0-67,106.44,0,110,69.34,110Zm11.24,291.79H646L969.08,85.74h48.42Zm285.82,5.47q-51.95,0-81-41T871,485q0-57.81,28.32-97.85t80.66-40q54.69,0,82.42,42.19T1090.14,487q0,54.7-28.71,96.1t-80.28,41.36Zm.58-31.25q33.51,0,50.06-28.85t16.55-73.7q0-48-16.75-80.51t-52.19-32.56Q912,377.54,912,484q0,109.18,69.7,109.18Z" transform="translate(0 -0.03)"/><path class="cls-2" d="M683.11,357.62q-51.18,0-80.67-40.63T573,218.55q0-58.2,28.52-98.24t80.46-40q55.08,0,83,42.19t27.93,97.66q0,55.07-28.9,96.28T683.11,357.62Zm1-30.47q33.67,0,50.33-29.35t16.66-74q0-49.7-17.05-81.39t-52.3-31.7q-67,0-67,106.44,0,110,69.34,110Zm11.24,291.79H646L969.08,85.74h48.42Zm285.82,5.47q-51.95,0-81-41T871,485q0-57.81,28.32-97.85t80.66-40q54.69,0,82.42,42.19T1090.14,487q0,54.7-28.71,96.1t-80.28,41.36Zm.58-31.25q33.51,0,50.06-28.85t16.55-73.7q0-48-16.75-80.51t-52.19-32.56Q912,377.54,912,484q0,109.18,69.7,109.18Z" transform="translate(0 -0.03)"/><path class="cls-7" d="M683.11,357.62q-51.18,0-80.67-40.63T573,218.55q0-58.2,28.52-98.24t80.46-40q55.08,0,83,42.19t27.93,97.66q0,55.07-28.9,96.28T683.11,357.62Zm1-30.47q33.67,0,50.33-29.35t16.66-74q0-49.7-17.05-81.39t-52.3-31.7q-67,0-67,106.44,0,110,69.34,110Zm11.24,291.79H646L969.08,85.74h48.42Zm285.82,5.47q-51.95,0-81-41T871,485q0-57.81,28.32-97.85t80.66-40q54.69,0,82.42,42.19T1090.14,487q0,54.7-28.71,96.1t-80.28,41.36Zm.58-31.25q33.51,0,50.06-28.85t16.55-73.7q0-48-16.75-80.51t-52.19-32.56Q912,377.54,912,484q0,109.18,69.7,109.18Z" transform="translate(0 -0.03)"/><path class="cls-8" d="M652.11,357.62q-51.18,0-80.67-40.63T542,218.55q0-58.2,28.52-98.24t80.46-40q55.08,0,83,42.19t27.93,97.66q0,55.07-28.9,96.28T652.11,357.62Zm1-30.47q33.67,0,50.33-29.35t16.66-74q0-49.7-17.05-81.39t-52.3-31.7q-67,0-67,106.44,0,110,69.34,110Zm11.24,291.79H615L938.08,85.74H986.5Zm285.82,5.47q-51.95,0-81-41T840,485q0-57.81,28.32-97.85t80.66-40q54.69,0,82.42,42.19T1059.14,487q0,54.7-28.71,96.1t-80.28,41.36Zm.58-31.25q33.51,0,50.06-28.85t16.55-73.7q0-48-16.75-80.51T948.4,377.54Q881,377.54,881,484q0,109.18,69.72,109.18Z" transform="translate(0 -0.03)"/><path class="cls-9" d="M760.07,632.32c4.12-7.64-.56-17-5.94-23.82s-11.94-13.9-11.8-22.59c.2-12.47,13.44-19.84,24-26.46a117.41,117.41,0,0,0,21.58-17.34,31.73,31.73,0,0,0,6.63-8.88c2.19-4.88,2.12-10.43,2-15.77q-.69-26.72-2.64-53.36" transform="translate(0 -0.03)"/><path class="cls-3" d="M814,463.12a19.45,19.45,0,0,0-9.71-15.94L800,455.8l.13-10.44A19.46,19.46,0,1,0,814,463.12Z" transform="translate(0 -0.03)"/><path class="cls-3" d="M779.32,594.86a19.45,19.45,0,1,1,.94-15.67l-12.16,9.89L781.5,586A19.41,19.41,0,0,1,779.32,594.86Z" transform="translate(0 -0.03)"/><path class="cls-3" d="M769.71,557.05a19.46,19.46,0,0,1-20.35-18.53h0a19.19,19.19,0,0,1,1.68-8.87,19.51,19.51,0,0,1,12.46-10.79l-.11,8,4.41-8.72h0A19.46,19.46,0,0,1,769.62,557h0Z" transform="translate(0 -0.03)"/><path class="cls-3" d="M817,525.62a19.47,19.47,0,1,1-2.58-38.85l.76,0a19.25,19.25,0,0,1,10.42,2.47l-3.44,9.42,7.08-6.79a19.38,19.38,0,0,1,6.31,13.43,19,19,0,0,1-.5,5.36A19.47,19.47,0,0,1,817,525.62Z" transform="translate(0 -0.03)"/><path class="cls-4" d="M811.4,468.31c-4.49.49-8.85,1.89-13.36,2.17s-9.46-.8-12.31-4.31c-1.54-1.88-2.3-4.27-3.6-6.33a13.79,13.79,0,0,0-4.9-4.61,19.46,19.46,0,1,0,36.38,12.91C812.87,468.18,812.14,468.23,811.4,468.31Z" transform="translate(0 -0.03)"/><path class="cls-4" d="M817,525.62a19.47,19.47,0,0,1-18.51-27.76,14.58,14.58,0,0,1,3.91,3.92c1.39,2.09,2.23,4.51,3.86,6.43,3,3.57,8.21,4.73,12.9,4.52s9.23-1.55,13.91-2c.65-.06,1.31-.1,2-.12A19.48,19.48,0,0,1,817,525.62Z" transform="translate(0 -0.03)"/><path class="cls-4" d="M769.71,557.05a19.46,19.46,0,0,1-20.35-18.53h0a19.19,19.19,0,0,1,1.68-8.87,15.79,15.79,0,0,1,4.11,4c1.51,2.13,2.46,4.59,4.23,6.56,3.28,3.65,8.8,4.94,13.77,4.82s9.46-1.28,14.25-1.65A19.46,19.46,0,0,1,769.71,557.05Z" transform="translate(0 -0.03)"/><path class="cls-4" d="M779.32,594.86A19.46,19.46,0,0,1,743.84,579a19.61,19.61,0,0,1,4.27,3.81c1.85,2.26,3.07,4.82,5.21,6.92,4,3.9,10.4,5.51,16.12,5.66A81.54,81.54,0,0,0,779.32,594.86Z" transform="translate(0 -0.03)"/><path class="cls-9" d="M1061.07,631.32c4.12-7.64-.56-17-5.94-23.82s-11.94-13.9-11.8-22.59c.2-12.47,13.44-19.84,24-26.46a117.41,117.41,0,0,0,21.58-17.34,31.73,31.73,0,0,0,6.63-8.88c2.19-4.88,2.12-10.43,2-15.77q-.69-26.72-2.64-53.36" transform="translate(0 -0.03)"/><path class="cls-3" d="M1115,462.12a19.45,19.45,0,0,0-9.71-15.94L1101,454.8l.13-10.44A19.46,19.46,0,1,0,1115,462.12Z" transform="translate(0 -0.03)"/><path class="cls-3" d="M1080.32,593.86a19.45,19.45,0,1,1,.94-15.67l-12.16,9.89,13.4-3.12A19.41,19.41,0,0,1,1080.32,593.86Z" transform="translate(0 -0.03)"/><path class="cls-3" d="M1070.71,556.05a19.46,19.46,0,0,1-20.35-18.53h0a19.19,19.19,0,0,1,1.68-8.87,19.51,19.51,0,0,1,12.46-10.79l-.11,8,4.41-8.72h0a19.46,19.46,0,0,1,1.82,38.88h0Z" transform="translate(0 -0.03)"/><path class="cls-3" d="M1118,524.62a19.47,19.47,0,1,1-2.58-38.85l.76,0a19.25,19.25,0,0,1,10.42,2.47l-3.44,9.42,7.08-6.79a19.38,19.38,0,0,1,6.31,13.43,19,19,0,0,1-.5,5.36A19.47,19.47,0,0,1,1118,524.62Z" transform="translate(0 -0.03)"/><path class="cls-4" d="M1112.4,467.31c-4.49.49-8.85,1.89-13.36,2.17s-9.46-.8-12.31-4.31c-1.54-1.88-2.3-4.27-3.6-6.33a13.79,13.79,0,0,0-4.9-4.61,19.46,19.46,0,1,0,36.38,12.91C1113.87,467.18,1113.14,467.23,1112.4,467.31Z" transform="translate(0 -0.03)"/><path class="cls-4" d="M1118,524.62a19.47,19.47,0,0,1-18.51-27.76,14.58,14.58,0,0,1,3.91,3.92c1.39,2.09,2.23,4.51,3.86,6.43,3,3.57,8.21,4.73,12.9,4.52s9.23-1.55,13.91-2c.65-.06,1.31-.1,2-.12A19.48,19.48,0,0,1,1118,524.62Z" transform="translate(0 -0.03)"/><path class="cls-4" d="M1070.71,556.05a19.46,19.46,0,0,1-20.35-18.53h0a19.19,19.19,0,0,1,1.68-8.87,15.79,15.79,0,0,1,4.11,4c1.51,2.13,2.46,4.59,4.23,6.56,3.28,3.65,8.8,4.94,13.77,4.82,4.82-.1,9.46-1.28,14.25-1.65A19.46,19.46,0,0,1,1070.71,556.05Z" transform="translate(0 -0.03)"/><path class="cls-4" d="M1080.32,593.86A19.46,19.46,0,0,1,1044.84,578a19.61,19.61,0,0,1,4.27,3.81c1.85,2.26,3.07,4.82,5.21,6.92,4,3.9,10.4,5.51,16.12,5.66A81.54,81.54,0,0,0,1080.32,593.86Z" transform="translate(0 -0.03)"/><path class="cls-9" d="M109.93,618.32c-4.12-7.64.56-17,5.94-23.82s11.94-13.9,11.8-22.59c-.2-12.47-13.44-19.84-24-26.46a117.41,117.41,0,0,1-21.58-17.34,31.73,31.73,0,0,1-6.63-8.88c-2.19-4.88-2.12-10.43-2-15.77q.69-26.71,2.64-53.36" transform="translate(0 -0.03)"/><path class="cls-3" d="M56,449.12a19.45,19.45,0,0,1,9.71-15.94l4.36,8.62-.13-10.44A19.46,19.46,0,1,1,56,449.12Z" transform="translate(0 -0.03)"/><path class="cls-3" d="M90.68,580.86a19.45,19.45,0,1,0-.94-15.67l12.16,9.89L88.5,572A19.41,19.41,0,0,0,90.68,580.86Z" transform="translate(0 -0.03)"/><path class="cls-3" d="M100.29,543.05a19.46,19.46,0,0,0,20.35-18.53h0a19.19,19.19,0,0,0-1.68-8.87,19.51,19.51,0,0,0-12.46-10.79l.11,8-4.41-8.72h0A19.46,19.46,0,1,0,100.38,543Z" transform="translate(0 -0.03)"/><path class="cls-3" d="M53.05,511.62a19.47,19.47,0,1,0,2.58-38.85l-.76,0A19.28,19.28,0,0,0,44.5,475.2l3.44,9.42-7.13-6.76a19.42,19.42,0,0,0-6.31,13.4,19,19,0,0,0,.5,5.36A19.47,19.47,0,0,0,53.05,511.62Z" transform="translate(0 -0.03)"/><path class="cls-4" d="M58.6,454.31c4.49.49,8.85,1.89,13.36,2.17s9.46-.8,12.31-4.31c1.54-1.88,2.3-4.27,3.6-6.33a13.79,13.79,0,0,1,4.9-4.61,19.46,19.46,0,1,1-36.38,12.91C57.13,454.18,57.86,454.23,58.6,454.31Z" transform="translate(0 -0.03)"/><path class="cls-4" d="M53.05,511.62a19.47,19.47,0,0,0,18.51-27.76,14.58,14.58,0,0,0-3.91,3.92c-1.39,2.09-2.23,4.51-3.86,6.43-3,3.57-8.21,4.73-12.9,4.52s-9.23-1.55-13.91-2c-.65-.06-1.31-.1-2-.12A19.48,19.48,0,0,0,53.05,511.62Z" transform="translate(0 -0.03)"/><path class="cls-4" d="M100.29,543.05a19.46,19.46,0,0,0,20.35-18.53h0a19.19,19.19,0,0,0-1.68-8.87,15.79,15.79,0,0,0-4.11,4c-1.51,2.13-2.46,4.59-4.23,6.56-3.28,3.65-8.8,4.94-13.77,4.82-4.82-.1-9.46-1.28-14.25-1.65A19.46,19.46,0,0,0,100.29,543.05Z" transform="translate(0 -0.03)"/><path class="cls-4" d="M90.68,580.86A19.46,19.46,0,0,0,126.16,565a19.61,19.61,0,0,0-4.27,3.81c-1.85,2.26-3.07,4.82-5.21,6.92-4,3.9-10.4,5.51-16.12,5.66A81.54,81.54,0,0,1,90.68,580.86Z" transform="translate(0 -0.03)"/><path class="cls-10" d="M673.5,524.61a15.51,15.51,0,0,0-6.18-12.52c-.24-9.17-6.78-16.66-15.19-17.82a18.14,18.14,0,0,0-12.08-13.52h0a16,16,0,0,0-2.25-.53h-.22l-.39-.05h-2.06c-8.58,0-15.72,6.56-17.19,15.21-5.55-1.28-10.64.38-11.55,3.89a4.73,4.73,0,0,0,.15,2.81c.94,2.72,4,5.32,8.15,6.61l.54.16c.27.08.54.14.81.2h.18a14,14,0,0,0,6.11,18.31,3.17,3.17,0,0,0-.36.23,5,5,0,0,0-1.2,1.68,24.63,24.63,0,0,0-2.32,5.59c-.4,1.67-.47,3.42-1,5.07-.91,3-3.25,5.63-3.52,8.82-.12,1.42.11,3.09-.9,4.06a6.6,6.6,0,0,1-.8.59,6.06,6.06,0,0,0-1.76,1.84,5.83,5.83,0,0,1-1.17,1.62c-.91.69-2.41.62-2.86,1.68s.71,2.31.44,3.47c-.22.94-1.25,1.37-2,2a7.11,7.11,0,0,0-1.7,3.23,10.35,10.35,0,0,1-8.53-2.17,16,16,0,0,1,.88,3.19c-1.19-1.27-3.15-1.64-4.6-2.3a14.77,14.77,0,0,1-4.9-3.64l2.62-.36-11.6-17.6-3.42-.7,3.07,5.89a1.82,1.82,0,0,0-1,1.26,5.18,5.18,0,0,0-.12,2,37,37,0,0,0,.79,4.69l.89,4.14a11.38,11.38,0,0,0,.29,1.15,11.73,11.73,0,0,0-3.44.39,30.11,30.11,0,0,0-7.13-1.69,3.64,3.64,0,0,0-1.61.08,3.86,3.86,0,0,0-1.5,1.22,48.23,48.23,0,0,0-5.3,7.46c-6.23,10.84-14.55,20.3-22.34,30.1-5.38,2.19-10.8,4.27-16.23,6.33l-11.67,4.45c-2.33.89-4.75,1.8-7.23,1.64-1.12-.07-2.48-.24-3.11.71a5.7,5.7,0,0,0-.71,1.52c-.41,0-.82.1-1.2.12H496c-.74-1.84-1.38-3.81-2.8-5.15a1.75,1.75,0,0,0-1.32,1c-.28.52-.45,1.09-.77,1.57-.63.92-1.72,1.37-2.5,2.15s-1.27,2-2.11,2.76a8.32,8.32,0,0,1-4,1.55,25.25,25.25,0,0,0-6.21,2.36,10.67,10.67,0,0,1-2.3,1.06,8.67,8.67,0,0,1-2.69.09l-6.18-.45a4.81,4.81,0,0,0-1.65.07,3.07,3.07,0,0,0-2,3.17,4.93,4.93,0,0,0,1.95,3.4,13,13,0,0,0,3.52,1.83,102.56,102.56,0,0,0,16.55,4.85v1.25a28,28,0,0,0,12.61,3,1.79,1.79,0,0,0,.94-.17,2.07,2.07,0,0,0,.79-1.24,51.1,51.1,0,0,0,2.47-12.11h0a6.17,6.17,0,0,0,2.23-.57c2.13-.58,4.24.88,6.43,1.12,2.7.29,5.21-1.28,7.76-2.25.37-.14.74-.26,1.11-.38a12.7,12.7,0,0,1-2.55,2.47c-1.06.76-2.25,1.32-3.29,2.11a21.37,21.37,0,0,1-2.77,2.15,16.14,16.14,0,0,1-2.13.82,14.06,14.06,0,0,0-3,1.51,6.31,6.31,0,0,0-2.08,2,2.73,2.73,0,0,0,.69,3.8,2.76,2.76,0,0,0,1.17.46,8.59,8.59,0,0,0,2.53.07c3.34-.25,6.67-.56,10-.86a26.94,26.94,0,0,0,4.19-.6c.73-.18,1.45-.42,2.18-.61a17.54,17.54,0,0,1,3.81-.57,3.21,3.21,0,0,1,1.11.11c.78.25,1.33,1,2.12,1.2a3.25,3.25,0,0,0,1.51-.21,35,35,0,0,1,7.42-.79c1.09-.06,2.37-.27,2.88-1.28.62-1.25-.42-2.65-.83-4a12.22,12.22,0,0,1-.34-2.62,16.39,16.39,0,0,0-1.84-6.23,17.28,17.28,0,0,1-1.37-2.84,72.55,72.55,0,0,0,13.64-6.92c2.46-1.53,5-3.18,7.78-3.74,3.24-.65,6.58.21,9.77,1.13a221.3,221.3,0,0,1,22.39,7.81,111.2,111.2,0,0,0,10.58,4,16.49,16.49,0,0,0,3.75,3.66c2.4,1.55,5.33,2,8.15,2.22a107,107,0,0,0,11.46.43c2.92-.05,5.93-.25,8.54-1.58A9.72,9.72,0,0,0,635.1,626c2,.36,4-.71,5.62-2.08a13.57,13.57,0,0,0,4.3-6.75c.92-3.61.21-7.82,2.43-10.77.59-.79,1.36-1.43,1.94-2.23a6.05,6.05,0,0,0,1-3.63l.1-.15a13.57,13.57,0,0,0,1-3.64,20.74,20.74,0,0,1,1-2.87,85.87,85.87,0,0,0,2.94-8.53,46.82,46.82,0,0,0,1.36-5.85c.24-1.58.38-3.17.51-4.76a28.46,28.46,0,0,1,1.44-7.31,59.84,59.84,0,0,0,3.31-17.52v-.35a11.73,11.73,0,0,0,10.45-11.84,12.67,12.67,0,0,0-1.08-5.11A15.82,15.82,0,0,0,673.5,524.61ZM617,593.32c.17.61.37,1.22.57,1.83-.92-.91-1.83-1.85-2.76-2.75.37.11.74.23,1.1.36a6.7,6.7,0,0,1,1.1.56Zm-4.48-3c-5.46-4.74-11.78-8.42-17.37-13,3,1.51,6,3.26,9,4.94q5.24,3,10.6,5.74a8.68,8.68,0,0,1-2.2,2.28Zm2.33-11.94.26-.27V580c-.49-.16-1-.32-1.47-.5a11.93,11.93,0,0,0,1.22-1.14Zm-48.07,12.84a45.32,45.32,0,0,0,5.83-8.31c2.16,3.79,5.68,6.52,8.68,9.69-4.82-.68-9.65-1.21-14.5-1.42Z" transform="translate(0 -0.03)"/><polygon class="cls-11" points="574.53 545.09 577.98 545.79 589.73 563.15 584.54 563.85 574.53 545.09"/><path class="cls-12" d="M491,615.58a68.88,68.88,0,0,0,3.43,9,83.16,83.16,0,0,0,11.46-3.27,30.18,30.18,0,0,0-2.38-3.23,11.23,11.23,0,0,0-3.24-2.49c-1.19-.52-2.66-.13-3.93-.06C494.54,615.6,492.76,615.61,491,615.58Z" transform="translate(0 -0.03)"/><path class="cls-11" d="M500.27,620.22c-1.94-.61-3.13-2.57-3.92-4.46s-1.43-4-2.93-5.34a1.75,1.75,0,0,0-1.32,1c-.29.5-.46,1.07-.79,1.55-.62.9-1.72,1.34-2.51,2.11s-1.28,1.94-2.13,2.71a8.44,8.44,0,0,1-4,1.54,25.1,25.1,0,0,0-6.26,2.32,10.84,10.84,0,0,1-2.32,1,8.8,8.8,0,0,1-2.71.09l-6.23-.45a4.87,4.87,0,0,0-1.66.08,3,3,0,0,0-2,3.12,4.84,4.84,0,0,0,2,3.35,13.43,13.43,0,0,0,3.54,1.8,106.42,106.42,0,0,0,16.7,4.77v1.23a28.89,28.89,0,0,0,12.71,3,2,2,0,0,0,1-.17,2.06,2.06,0,0,0,.8-1.22,49.25,49.25,0,0,0,2.59-13.54,10.2,10.2,0,0,0-.26-3.48c-.34-1.12.82-.65-.26-1.09" transform="translate(0 -0.03)"/><path class="cls-11" d="M619.71,596.74c-18.47,1.12-36.71-4.3-55.21-4.88a27.67,27.67,0,0,0-6.86.44,33.62,33.62,0,0,0-6.8,2.64c-9.91,4.61-20.17,8.43-30.42,12.25l-11.76,4.38c-2.36.87-4.79,1.76-7.3,1.61-1.12-.07-2.49-.24-3.13.7-1.91,2.83-1,7,.26,10.18.41,1,1.1,2.15,2.2,2.27a6.49,6.49,0,0,0,2.25-.57c2.14-.57,4.28.87,6.48,1.1,2.73.29,5.26-1.26,7.83-2.21,4.26-1.57,8.92-1.52,13.4-2.27,7.52-1.25,14.48-4.74,21-8.72,2.48-1.51,5-3.13,7.84-3.68,3.27-.64,6.64.2,9.85,1.11a227.16,227.16,0,0,1,22.57,7.69,102.66,102.66,0,0,0,11.8,4.3,42.66,42.66,0,0,0,26.44-1.54c3-1.17,6.16-3.23,6.33-6.42.1-1.82-1.31-3.42-2.25-5-.61-1-1.21-2-1.87-3C629.18,602.53,625.32,596.4,619.71,596.74Z" transform="translate(0 -0.03)"/><path class="cls-4" d="M619.71,596.74c-18.47,1.12-36.71-4.3-55.21-4.88a27.67,27.67,0,0,0-6.86.44,33.62,33.62,0,0,0-6.8,2.64c-9.91,4.61-20.17,8.43-30.42,12.25l-11.76,4.38c-2.36.87-4.79,1.76-7.3,1.61-1.12-.07-2.49-.24-3.13.7-1.91,2.83-1,7,.26,10.18.41,1,1.1,2.15,2.2,2.27a6.49,6.49,0,0,0,2.25-.57c2.14-.57,4.28.87,6.48,1.1,2.73.29,5.26-1.26,7.83-2.21,4.26-1.57,8.92-1.52,13.4-2.27,7.52-1.25,14.48-4.74,21-8.72,2.48-1.51,5-3.13,7.84-3.68,3.27-.64,6.64.2,9.85,1.11a227.16,227.16,0,0,1,22.57,7.69,102.66,102.66,0,0,0,11.8,4.3,42.66,42.66,0,0,0,26.44-1.54c3-1.17,6.16-3.23,6.33-6.42.1-1.82-1.31-3.42-2.25-5-.61-1-1.21-2-1.87-3C629.18,602.53,625.32,596.4,619.71,596.74Z" transform="translate(0 -0.03)"/><path class="cls-12" d="M526.43,616.48c2.89,1,5.81,1.89,8.74,2.72,1.65-2.71,4.73-4.59,5.43-7.68a.72.72,0,0,0,0-.41.74.74,0,0,0-.33-.3,16.35,16.35,0,0,0-6.85-2c-1.9-.12-2.76,1.86-3.62,3.25C529.5,612.62,527.2,616.74,526.43,616.48Z" transform="translate(0 -0.03)"/><path class="cls-11" d="M530.5,614.5a6.27,6.27,0,0,1-4.25-2.79c-.41-.71-.84-1.67-1.66-1.62s-1.1.95-1.27,1.7a47.92,47.92,0,0,1-2.39,8.21,15.47,15.47,0,0,1-5.11,6.71c-1.07.74-2.26,1.3-3.31,2.08a22.14,22.14,0,0,1-2.8,2.12,15,15,0,0,1-2.15.8,15,15,0,0,0-3.07,1.49,6.25,6.25,0,0,0-2.09,2,2.69,2.69,0,0,0,1.82,4.21,9.07,9.07,0,0,0,2.55.06c3.37-.25,6.73-.55,10.09-.85a28.68,28.68,0,0,0,4.23-.58c.74-.18,1.46-.42,2.19-.61a18.54,18.54,0,0,1,3.85-.56,3.24,3.24,0,0,1,1.12.11c.78.25,1.33,1,2.13,1.18a3.27,3.27,0,0,0,1.52-.2,36.19,36.19,0,0,1,7.48-.78c1.1-.06,2.4-.27,2.9-1.26.63-1.23-.41-2.61-.83-3.93a12.51,12.51,0,0,1-.35-2.58,15.71,15.71,0,0,0-1.85-6.13c-.86-1.58-2-3.32-1.43-5a4.33,4.33,0,0,0,.57-1.71C538.25,613.86,532,614.86,530.5,614.5Z" transform="translate(0 -0.03)"/><path class="cls-12" d="M592,567.12a14.49,14.49,0,0,1-7.36-7.31c-.3-.7-.56-1.43-.85-2.14a16.28,16.28,0,0,0-4.4-6.1,2.11,2.11,0,0,0-1.63-.69,1.75,1.75,0,0,0-1.2,1.28,5.18,5.18,0,0,0-.13,2,38,38,0,0,0,.8,4.61l.9,4.08a7.68,7.68,0,0,0,.56,1.82,6.28,6.28,0,0,0,1.5,1.79c.82.76,1.65,1.49,2.49,2.2a8.58,8.58,0,0,0,1.51,1.1,9.26,9.26,0,0,0,2.81.82c3.67.68,7.4,1.66,10.49,4,0,0,0-2.73-.07-3a4,4,0,0,0-.78-2.19C595.5,568.14,593.5,567.77,592,567.12Z" transform="translate(0 -0.03)"/><path class="cls-4" d="M592,567.12a14.49,14.49,0,0,1-7.36-7.31c-.3-.7-.56-1.43-.85-2.14a16.28,16.28,0,0,0-4.4-6.1,2.11,2.11,0,0,0-1.63-.69,1.75,1.75,0,0,0-1.2,1.28,5.18,5.18,0,0,0-.13,2,38,38,0,0,0,.8,4.61l.9,4.08a7.68,7.68,0,0,0,.56,1.82,6.28,6.28,0,0,0,1.5,1.79c.82.76,1.65,1.49,2.49,2.2a8.58,8.58,0,0,0,1.51,1.1,9.26,9.26,0,0,0,2.81.82c3.67.68,7.4,1.66,10.49,4,0,0,0-2.73-.07-3a4,4,0,0,0-.78-2.19C595.5,568.14,593.5,567.77,592,567.12Z" transform="translate(0 -0.03)"/><ellipse class="cls-11" cx="629.62" cy="531.37" rx="4.49" ry="4.52"/><path class="cls-11" d="M626.84,528.67a5,5,0,0,0-3.55.51,4.84,4.84,0,0,0-1.21,1.66,23.41,23.41,0,0,0-2.34,5.5c-.4,1.65-.47,3.37-1,5-.92,3-3.28,5.55-3.55,8.68-.12,1.4.11,3.05-.91,4a5.88,5.88,0,0,1-.81.57,6.26,6.26,0,0,0-1.77,1.82,5.8,5.8,0,0,1-1.25,1.73c-.92.68-2.43.61-2.88,1.66s.71,2.27.44,3.41c-.22.93-1.26,1.36-2,2a6.94,6.94,0,0,0-1.71,3.19,10.59,10.59,0,0,1-8.59-2.15c1.25,3.09,1.28,6.5,1.33,9.83a4.08,4.08,0,0,1-.79,3,50.8,50.8,0,0,1,10.55,1.83,7.24,7.24,0,0,0,4.6,0,7.63,7.63,0,0,0,2.11-1.68c1.9-1.93,3.89-4,4.35-6.69a36.34,36.34,0,0,0,.08-4.55,26,26,0,0,1,1.15-5.51,65.17,65.17,0,0,0,2-11.35c.21-2.37,2.25-4.27,3.33-6.39,2-4,4.1-8.15,4.26-12.63C628.82,530.65,628.32,528.86,626.84,528.67Z" transform="translate(0 -0.03)"/><path class="cls-4" d="M626.84,528.67a5,5,0,0,0-3.55.51,4.84,4.84,0,0,0-1.21,1.66,23.41,23.41,0,0,0-2.34,5.5c-.4,1.65-.47,3.37-1,5-.92,3-3.28,5.55-3.55,8.68-.12,1.4.11,3.05-.91,4a5.88,5.88,0,0,1-.81.57,6.26,6.26,0,0,0-1.77,1.82,5.8,5.8,0,0,1-1.25,1.73c-.92.68-2.43.61-2.88,1.66s.71,2.27.44,3.41c-.22.93-1.26,1.36-2,2a6.94,6.94,0,0,0-1.71,3.19,10.59,10.59,0,0,1-8.59-2.15c1.25,3.09,1.28,6.5,1.33,9.83a4.08,4.08,0,0,1-.79,3,50.8,50.8,0,0,1,10.55,1.83,7.24,7.24,0,0,0,4.6,0,7.63,7.63,0,0,0,2.11-1.68c1.9-1.93,3.89-4,4.35-6.69a36.34,36.34,0,0,0,.08-4.55,26,26,0,0,1,1.15-5.51,65.17,65.17,0,0,0,2-11.35c.21-2.37,2.25-4.27,3.33-6.39,2-4,4.1-8.15,4.26-12.63C628.82,530.65,628.32,528.86,626.84,528.67Z" transform="translate(0 -0.03)"/><path class="cls-11" d="M622.64,600.63c-3.85-1.83-6.66-5.24-9.77-8.16-5.94-5.58-13.2-9.52-19.44-14.75-4.13-3.46-7.83-7.49-12.38-10.39a30.83,30.83,0,0,0-13.26-4.65,3.7,3.7,0,0,0-1.62.08,3.86,3.86,0,0,0-1.51,1.2,46.48,46.48,0,0,0-5.35,7.35c-7.91,13.42-19.14,24.71-28.45,37.2a1.67,1.67,0,0,0-.11,2.26l1.89,3.71c1.06,2.07,2.76,4.49,5,4.08a5.53,5.53,0,0,0,2.65-1.69l8.5-8.13,8.91-8.52c5.22-5,10.53-10.1,13.94-16.48,2.66,4.61,7.38,7.63,10.62,11.86,1.23,1.6,2.23,3.37,3.33,5.07,1.77,2.73,3.77,5.29,5.77,7.84l10.23,13a19.78,19.78,0,0,0,4.73,4.8c2.42,1.53,5.37,1.94,8.22,2.19a106.07,106.07,0,0,0,11.55.42c2.94-.05,6-.24,8.6-1.55s4.81-4,4.67-6.93a10.24,10.24,0,0,0-1.47-4.33C634.28,609.46,629.5,603.86,622.64,600.63Z" transform="translate(0 -0.03)"/><ellipse class="cls-13" cx="632.38" cy="534.5" rx="3.45" ry="3.47"/><path class="cls-12" d="M631.62,531.92a6.58,6.58,0,0,1,.38,5,19.33,19.33,0,0,1-2.22,4.6,22.77,22.77,0,0,1-2.89,4.12c5.33.26,10.5-1.83,15.2-4.37,3.79-2,7.57-4.55,9.59-8.36a4.45,4.45,0,0,1-3.53-.65,13.24,13.24,0,0,1-2.71-2.52l-2.67-3a12.42,12.42,0,0,1-1.65-2.17,6,6,0,0,1-.71-3.49,20,20,0,0,1-3.54,2.94c-1.91,1.25-4,2.15-5.93,3.38-.68.44-2.19,1.15-1.8,2S631.08,531,631.62,531.92Z" transform="translate(0 -0.03)"/><path class="cls-4" d="M631.62,531.92a6.58,6.58,0,0,1,.38,5,19.33,19.33,0,0,1-2.22,4.6,22.77,22.77,0,0,1-2.89,4.12c5.33.26,10.5-1.83,15.2-4.37,3.79-2,7.57-4.55,9.59-8.36a4.45,4.45,0,0,1-3.53-.65,13.24,13.24,0,0,1-2.71-2.52l-2.67-3a12.42,12.42,0,0,1-1.65-2.17,6,6,0,0,1-.71-3.49,20,20,0,0,1-3.54,2.94c-1.91,1.25-4,2.15-5.93,3.38-.68.44-2.19,1.15-1.8,2S631.08,531,631.62,531.92Z" transform="translate(0 -0.03)"/><path class="cls-13" d="M631.69,532.44a4.53,4.53,0,0,0,0,5.21c.15.19.72,1.38,1,1.39a.91.91,0,0,0,.61-.31,41.55,41.55,0,0,0,3.38-4,7.45,7.45,0,0,1,4.3-2.82c2.09-.33,4.1.78,5.93,1.84a5.64,5.64,0,0,1,2,1.66,5.48,5.48,0,0,1,.67,2.26,104.41,104.41,0,0,1,.6,14.36,54.92,54.92,0,0,1-.68,10.33c-.34,1.76-.85,3.48-1.09,5.26a33.83,33.83,0,0,0-.21,4.72v6.6a16.79,16.79,0,0,0,.26,3.61,44.11,44.11,0,0,0,1.45,4.19,27.51,27.51,0,0,1,1,5l.9,6.83c.29,2.16.5,4.51-.81,6.24-.58.79-1.36,1.41-2,2.19-2.25,2.86-1.5,7-2.5,10.56a13.35,13.35,0,0,1-4.34,6.65c-1.59,1.35-3.65,2.42-5.71,2-2.77-.52-4.44-3.41-5.2-6.14s-1-5.71-2.67-8c-1.34-1.89-3.41-3.07-5.28-4.42s-3.71-3.08-4.12-5.36c-.18-1-.07-2-.17-3a7.14,7.14,0,0,0-4.42-5.8c-1.42-.55-3.18-.75-4-2a9.61,9.61,0,0,0,4.16-5.59,28.51,28.51,0,0,0,1-7l.48-7.94c.21-3.55.31-7.07,1.87-10.26.7-1.42,1.57-2.76,2.29-4.17a46.27,46.27,0,0,0,2.46-6.12c1.13-3.25,2.27-6.51,3.28-9.8a19.32,19.32,0,0,1,1.8-4.57C628.86,534.54,630.09,532.74,631.69,532.44Z" transform="translate(0 -0.03)"/><path class="cls-11" d="M614.06,584l2.1.07.45-3.17a6.93,6.93,0,0,1,.44-1.85,11.3,11.3,0,0,1,1.21-1.77c2.07-2.92,1.92-6.8,2.43-10.35.68-4.73,2.66-9.17,4.62-13.53l4.08-9.09a13.9,13.9,0,0,0,.87-2.33,12.83,12.83,0,0,0,.25-2.69c0-1.4.46-6.51.49-7.92,0-.52-1.14-.23-1.38-.69-.51-1-1.21,1.72-2.17,2.32a5.38,5.38,0,0,0-1.88,2.75c-.88,2.29-1.42,4.7-2.24,7a14.34,14.34,0,0,1-3.81,6.19c-.83.74-1.8,1.32-2.59,2.1-2.54,2.51-2.78,6.47-2.87,10C614,563.26,613.59,584,614.06,584Z" transform="translate(0 -0.03)"/><path class="cls-11" d="M644.31,528.65c-2,.8-3.16,3-3.73,5.14s-.81,4.4-1.91,6.3c-2.56,4.46-9.09,5.76-10.9,10.58a19.25,19.25,0,0,0-.73,5c-.32,3.45-1.46,6.79-1.8,10.24a45.11,45.11,0,0,0,.19,8.05l2.29,27.23a36.13,36.13,0,0,1-.69,12,11.55,11.55,0,0,0,6.86-1.13c2.15-1,4.11-2.32,6.17-3.46,3.55-2,7.47-3.35,10.57-6a6.29,6.29,0,0,0,1.43-1.57,13.49,13.49,0,0,0,1-3.59,20.1,20.1,0,0,1,1-2.82,83.06,83.06,0,0,0,3-8.4,45.65,45.65,0,0,0,1.37-5.77c.25-1.55.38-3.12.52-4.68a27.66,27.66,0,0,1,1.45-7.2,57.73,57.73,0,0,0,3.33-17.25,8.66,8.66,0,0,0-.17-2.54,13.87,13.87,0,0,0-1.38-2.88c-.95-1.79-1.52-3.76-2.42-5.57-2-4.1-5.59-7.21-9.34-9.82C648.5,529.24,646.39,527.86,644.31,528.65Z" transform="translate(0 -0.03)"/><path class="cls-12" d="M596.57,573.08a16.46,16.46,0,0,1-4.35-3.3c-.57-.67-1-1.42-1.62-2.08a10.67,10.67,0,0,0-5.47-3.12,26.48,26.48,0,0,0-6.34-.61,11.14,11.14,0,0,0-4.21.51,4.25,4.25,0,0,0-2.8,3c-.31,1.7.8,3.35,2.13,4.43a10.29,10.29,0,0,0,4.25,2.07,35.27,35.27,0,0,0,3.84.45c7.56.79,14.31,4.9,20.93,8.65q8.73,4.93,17.8,9.23a35.56,35.56,0,0,0,.3-5.46c0-1.36-.1-3.44-1.39-4.24-1.5-.94-4-1.15-5.66-1.71a89.79,89.79,0,0,1-11.39-4.6C600.5,575.29,598.5,574.22,596.57,573.08Z" transform="translate(0 -0.03)"/><ellipse class="cls-12" cx="629.62" cy="516.79" rx="13.47" ry="13.55"/><path class="cls-11" d="M648.16,544a22,22,0,0,0-2.61,4.87c-1.67,3.43-4.28,6.37-5.58,10s-1.33,8.26-4,11.23a3.86,3.86,0,0,0-1.17,1.7,8.58,8.58,0,0,1-.14,1.23c-.38,1.08-2.15,1.13-2.48,2.23-.09.32,0,.67-.16,1-.27.71-1.2.81-1.83,1.24-1.31.89-1,3-2,4.23a3.54,3.54,0,0,1-3.36,1.18,12.42,12.42,0,0,1-3.5-1.31,3,3,0,0,0-1.25-.39,2.53,2.53,0,0,0-1.45.49c-2.49,1.58-3.66,4.72-3.64,7.68a25.15,25.15,0,0,0,2.07,8.58,3.7,3.7,0,0,0,.69,1.28c.82.87,2.26.73,3.36.24a15.7,15.7,0,0,1,3.27-1.46c2.08-.38,4.12,1.06,6.23.94a8.77,8.77,0,0,0,4.21-1.86,23.35,23.35,0,0,0,5.68-4.85c.92-1.21,1.6-2.59,2.41-3.88a44,44,0,0,1,3.4-4.54l7.77-9.51a20.42,20.42,0,0,0,2.09-2.89,21,21,0,0,0,1.63-4.34,34.63,34.63,0,0,0,1.61-7.73,30.73,30.73,0,0,0-.57-6.49,22.39,22.39,0,0,0-1.67-6.17C655.44,543.21,651.33,540.31,648.16,544Z" transform="translate(0 -0.03)"/><path class="cls-14" d="M675.22,526.36A15.18,15.18,0,0,0,669,514a18,18,0,0,0-15.31-17.55,17.5,17.5,0,0,0-34.47.93c-5.6-1.26-10.72.38-11.65,3.83-1,3.61,3,7.83,8.92,9.43a16.42,16.42,0,0,0,5.71.57,17.53,17.53,0,0,0,12.06,7.5,17.94,17.94,0,0,0,13.15,13.57,15.12,15.12,0,0,0,4.06,5.62c0,.42-.07.85-.07,1.29a11.41,11.41,0,1,0,22.8,1q0-.48,0-1a12,12,0,0,0-1.09-5A15.31,15.31,0,0,0,675.22,526.36Z" transform="translate(0 -0.03)"/><path class="cls-4" d="M611.35,501.93c.93-3.45,6-5.09,11.65-3.83a17.79,17.79,0,0,1,17.33-15h1.16a17.3,17.3,0,0,0-5-.74,17.79,17.79,0,0,0-17.33,15c-5.6-1.26-10.72.38-11.65,3.83-1,3.61,3,7.83,8.92,9.43a16.74,16.74,0,0,0,3.37.58C614.18,509.56,610.4,505.46,611.35,501.93Z" transform="translate(0 -0.03)"/><path class="cls-4" d="M655.18,539.92a8,8,0,0,1,.07-1.3,15.08,15.08,0,0,1-4.06-5.61A18,18,0,0,1,638,519.43a17.53,17.53,0,0,1-12.06-7.5,15.72,15.72,0,0,1-3.36-.09,17.5,17.5,0,0,0,11.62,6.9,17.94,17.94,0,0,0,13.15,13.57,15.12,15.12,0,0,0,4.06,5.62c0,.42-.07.85-.07,1.29A11.61,11.61,0,0,0,662.72,551,11.78,11.78,0,0,1,655.18,539.92Z" transform="translate(0 -0.03)"/><ellipse class="cls-12" cx="634.11" cy="519.58" rx="2.08" ry="2.77" transform="translate(-185.13 489.36) rotate(-37.22)"/><path class="cls-3" d="M313.8,589.21l13.32-7.83a31.94,31.94,0,0,0-6.81-8.15L295.19,581l19.68-11.57a32,32,0,0,0-47.37,28.07c0,17.67,14.33,18.28,32,18.28s32-.61,32-18.28a31.81,31.81,0,0,0-2.75-13Z" transform="translate(0 -0.03)"/><path class="cls-4" d="M317.19,606.39a24.91,24.91,0,0,0-4.72-3.71c-2.41-1.61-4.92-3.25-7.77-3.79-2.5-.48-5.08-.07-7.63-.22a17.81,17.81,0,0,1-11.69-5.36c-1.82-1.88-3.25-4.19-5.44-5.63a12,12,0,0,0-8.14-1.49,19.79,19.79,0,0,0-2.41.49,32.15,32.15,0,0,0-1.89,10.86c0,17.67,14.33,18.28,32,18.28,8.58,0,16.36-.14,22.11-2.31l-1-1.79A24.82,24.82,0,0,0,317.19,606.39Z" transform="translate(0 -0.03)"/></svg>