<svg id="ffc6eb9a-0ec0-429c-85a8-ff38b44048bf" xmlns="http://www.w3.org/2000/svg" viewBox="0 0 896 747.97"><defs><style>.cls-1{fill:#f0f0f0;}.cls-2{fill:#2f2e41;}.cls-3{fill:#5efbcc;}.cls-4{fill:#f2f2f2;}.cls-5{fill:#3f3d56;}.cls-6{fill:#a0616a;}.cls-7{opacity:0.1;isolation:isolate;}</style></defs><path class="cls-1" d="M20.09,570.24c1.74-65,14.08-156.83,73.89-213,77.13-72.47,158.79-27.49,312-64.11,187.07-44.71,213.53-183.41,288.39-158.85,124.82,40.95,190.54,438,56.45,546.4-51,41.23-124.79,35.65-164.21,32.67-115.26-8.72-126.81-68.83-220.65-80C232.22,617.42,130.05,751.46,59.09,703.18,38.73,689.32,18.47,656,20.09,570.24Z" transform="translate(0 0)"/><path class="cls-2" d="M41.63,712.74c12.43,23,38.81,32.94,38.81,32.94s6.23-27.47-6.2-50.52-38.81-32.95-38.81-32.95S29.21,689.69,41.63,712.74Z" transform="translate(0 0)"/><path class="cls-3" d="M50.18,705.15c22.43,13.5,31.08,40.32,31.08,40.32s-27.74,4.93-50.18-8.57S0,696.58,0,696.58,27.74,691.66,50.18,705.15Z" transform="translate(0 0)"/><rect class="cls-4" x="583.25" y="113.91" width="2" height="18.5"/><rect class="cls-4" x="708.25" y="158.91" width="2" height="18.5"/><rect class="cls-4" x="694.25" y="622.91" width="2" height="18.5"/><rect class="cls-4" x="417.25" y="319.91" width="140" height="2"/><rect class="cls-4" x="455.25" y="301.91" width="2" height="18.5"/><rect class="cls-4" x="516.25" y="301.91" width="2" height="18.5"/><rect class="cls-4" x="461.25" y="560.91" width="140" height="2"/><rect class="cls-4" x="499.25" y="542.91" width="2" height="18.5"/><rect class="cls-4" x="560.25" y="542.91" width="2" height="18.5"/><rect class="cls-4" x="685.25" y="487.91" width="140" height="2"/><rect class="cls-4" x="723.25" y="469.91" width="2" height="18.5"/><rect class="cls-4" x="784.25" y="469.91" width="2" height="18.5"/><polygon class="cls-2" points="362.06 702.18 125.27 702.18 125.27 700.48 360.36 700.48 360.36 617.86 145.18 617.86 134.73 596.08 136.26 595.35 146.25 616.16 362.06 616.16 362.06 702.18"/><circle class="cls-5" cx="156.79" cy="726.03" r="17.89"/><circle class="cls-5" cx="333.1" cy="726.03" r="17.89"/><circle class="cls-5" cx="540.93" cy="346.15" r="11.07"/><path class="cls-2" d="M387.39,589.75H121.24L63.65,401.52h383l-.35,1.1Zm-264.89-1.7H386.14l58.23-184.83H66Z" transform="translate(0 0)"/><polygon class="cls-4" points="366.61 579.96 132.84 579.96 82.26 413.01 418.7 413.01 418.39 414 366.61 579.96"/><polygon class="cls-2" points="451.46 384.7 449.82 384.26 461.06 341.89 526.45 341.89 526.45 343.6 462.37 343.6 451.46 384.7"/><rect class="cls-2" x="82.26" y="458.58" width="345.29" height="1.7"/><rect class="cls-2" x="101.46" y="521.34" width="306.32" height="1.7"/><rect class="cls-2" x="254.31" y="402.37" width="1.7" height="186.53"/><rect class="cls-2" x="233.56" y="494.78" width="186.93" height="1.7" transform="translate(-188.94 789.53) rotate(-86.25)"/><rect class="cls-2" x="182.46" y="402.17" width="1.7" height="186.93" transform="translate(-31.85 12.97) rotate(-3.73)"/><rect class="cls-2" y="745" width="896" height="2"/><path class="cls-6" d="M595.41,61.88s14.62,41.6,5.62,48,30.36,58.68,30.36,58.68l47.23-12.8L652.76,112s-3.37-43.74-3.37-50.14S595.41,61.88,595.41,61.88Z" transform="translate(0 0)"/><path class="cls-7" d="M595.41,61.88s14.62,41.6,5.62,48,30.36,58.68,30.36,58.68l47.23-12.8L652.76,112s-3.37-43.74-3.37-50.14S595.41,61.88,595.41,61.88Z" transform="translate(0 0)"/><path class="cls-2" d="M570.87,358.45s-4.26,53.35,0,81.08,10.67,104.55,10.67,104.55,0,145.09,23.47,147.22,40.54,4.27,42.68-4.26S637,674.23,643.42,670s8.53-19.21,0-36.27,0-189.9,0-189.9L684,552.62s4.26,89.61,8.53,102.41-4.27,36.27,10.67,38.41,32-10.67,40.54-14.94-12.8-4.27-8.53-6.4,17.06-8.53,12.8-10.67-8.54-104.55-8.54-104.55-11.73-218.7-26.67-227.23-24.54,6.17-24.54,6.17Z" transform="translate(0 0)"/><path class="cls-2" d="M609.28,682.77v17.07s-19.2,46.4,0,46.4,34.14,4.81,34.14-1.59V687Z" transform="translate(0 0)"/><path class="cls-2" d="M735.17,682.74v17.07s19.2,46.4,0,46.4S701,751,701,744.62V687Z" transform="translate(0 0)"/><circle class="cls-6" cx="625.28" cy="54.41" r="38.41"/><path class="cls-3" d="M613.55,125.89s10.67,32,27.73,25.6l17.07-6.4,29.87,204.83s-23.47,34.14-57.6,12.8S613.55,125.89,613.55,125.89Z" transform="translate(0 0)"/><path class="cls-5" d="M643.42,119.48,653,99.21s56.54,26.68,65.08,35.21,8.53,21.34,8.53,21.34L711.69,209.1S716,326.45,716,330.72s14.94,27.73,4.27,19.2-12.8-17.07-21.34-4.27-27.73,27.74-27.73,27.74Z" transform="translate(0 0)"/><path class="cls-6" d="M718.1,273.11l-6.41,59.74s-38.4,34.14-29.87,36.27,12.81-6.4,12.81-6.4,14.93,14.94,23.47,6.4S748,279.51,748,279.51Z" transform="translate(0 0)"/><path class="cls-2" d="M626.1.13c-8.51-.3-17.63-.46-24.8,4.13a36.55,36.55,0,0,0-8.58,8.39c-7,8.84-13,20-10.43,30.93l3-1.18a19.85,19.85,0,0,1-1.9,8.47c.42-1.24,1.85.76,1.47,2l-3.33,10.9c5.47-2,12.26,2,13.09,7.81.38-12.66,1.69-27.18,12-34.6,5.17-3.73,11.73-4.88,18-5.89,5.82-.93,11.91-1.83,17.49.09s10.32,7.61,9,13.37c2.57-.88,5.45.91,6.72,3.31s1.33,5.24,1.37,8c2.74,1.94,5.86-1.9,7-5.07,2.62-7.42,5-15.32,3.54-23.07s-7.72-15.15-15.59-15.17a5.51,5.51,0,0,0,1.42-3.85l-6.49-.55a7.11,7.11,0,0,0,4.28-2.26C650.8,8.72,630.31.28,626.1.13Z" transform="translate(0 0)"/><path class="cls-5" d="M624.22,113.08s-17.37-17-23.63-16-14.78,16-14.78,16-51.21,17.07-49.07,34.14,25.6,100.28,25.6,100.28,19.2,100.29,2.13,111,81.08,38.41,83.22,25.61,6.4-140.82,0-160S624.22,113.08,624.22,113.08Z" transform="translate(0 0)"/><path class="cls-5" d="M698.89,147.22h26.39s18.42,81.08,20.55,89.62,6.4,49.07,4.27,49.07-44.81-8.53-44.81-2.13Z" transform="translate(0 0)"/><path class="cls-4" d="M698,348H597c-9.86-45.34-10.68-89.15,0-131H698C681.7,258.1,680.68,301.61,698,348Z" transform="translate(0 0)"/><path class="cls-6" d="M555.94,292.31l29.87,12.8s57.61,8.54,57.61-14.93-57.61-10.67-57.61-10.67l-19.2-6.14Z" transform="translate(0 0)"/><path class="cls-5" d="M562.34,134.42l-25.6,6.4L517.53,253.9s-6.4,29.88,4.27,32,40.54,19.2,40.54,19.2,4.27-32,12.8-32L553.8,256l12.81-74.68Z" transform="translate(0 0)"/><rect class="cls-4" x="159.25" y="334.91" width="2" height="18.5"/></svg>